<?xml version="1.0" encoding="UTF-8"?>
<!DOCTYPE svg PUBLIC "-//W3C//DTD SVG 1.1//EN" "http://www.w3.org/Graphics/SVG/1.1/DTD/svg11.dtd">
<svg xmlns="http://www.w3.org/2000/svg" version="1.1" width="320px" height="500px" viewBox="-0.5 -0.5 320 500" content="&lt;mxfile host=&quot;app.diagrams.net&quot;&gt;&lt;diagram name=&quot;Seed Money Settings&quot; id=&quot;seed-money&quot;&gt;&lt;/diagram&gt;&lt;/mxfile&gt;">
  <defs/>

  <!-- Sheet Frame -->
  <rect x="0" y="0" width="320" height="500" rx="20" ry="20" fill="#FFFFFF" stroke="#E0E0E0" stroke-width="2"/>

  <!-- Sheet Header -->
  <rect x="0" y="0" width="320" height="60" rx="20" ry="20" fill="#FFFFFF"/>
  <line x1="0" y1="60" x2="320" y2="60" stroke="#E0E0E0" stroke-width="0.5"/>

  <!-- Close Button -->
  <circle cx="30" cy="30" r="15" fill="#F2F2F7"/>
  <text x="30" y="35" font-family="SF Pro Display, -apple-system, sans-serif" font-size="16" text-anchor="middle" fill="#8E8E93">✕</text>

  <!-- Title -->
  <text x="160" y="38" font-family="SF Pro Display, -apple-system, sans-serif" font-size="17" font-weight="600" text-anchor="middle" fill="#000000">시드머니 설정</text>

  <!-- Content Area -->
  <g transform="translate(16, 80)">
    <!-- Label -->
    <text x="0" y="15" font-family="SF Pro Display, -apple-system, sans-serif" font-size="13" fill="#8E8E93">총 시드머니</text>

    <!-- Text Field -->
    <rect x="0" y="25" width="288" height="50" rx="8" ry="8" fill="#F2F2F7"/>
    <text x="15" y="58" font-family="SF Pro Display, -apple-system, sans-serif" font-size="20" fill="#000000">₩ 100,000,000</text>

    <!-- Hint -->
    <text x="0" y="100" font-family="SF Pro Display, -apple-system, sans-serif" font-size="13" fill="#8E8E93">💡 투자 가능한 총 금액을 입력하세요</text>
  </g>

  <!-- Bottom Button Area -->
  <line x1="0" y1="380" x2="320" y2="380" stroke="#E0E0E0" stroke-width="0.5"/>

  <g transform="translate(16, 396)">
    <!-- Save Button -->
    <rect x="0" y="0" width="288" height="50" rx="12" ry="12" fill="#007AFF"/>
    <text x="144" y="32" font-family="SF Pro Display, -apple-system, sans-serif" font-size="17" font-weight="600" text-anchor="middle" fill="#FFFFFF">저장</text>

    <!-- Cancel Button -->
    <rect x="0" y="60" width="288" height="50" rx="12" ry="12" fill="none"/>
    <text x="144" y="92" font-family="SF Pro Display, -apple-system, sans-serif" font-size="17" font-weight="600" text-anchor="middle" fill="#007AFF">취소</text>
  </g>

  <!-- Home Indicator -->
  <rect x="110" y="480" width="100" height="5" rx="2.5" ry="2.5" fill="#000000"/>
</svg>
